<svg xmlns="http://www.w3.org/2000/svg" xmlns:xlink="http://www.w3.org/1999/xlink" width="2000" zoomAndPan="magnify" viewBox="0 0 1500 374.999991" height="500" preserveAspectRatio="xMidYMid meet" version="1.0"><defs><g/><clipPath id="65ea6d1c97"><path d="M 209 287 L 402 287 L 402 331.867188 L 209 331.867188 Z M 209 287 " clip-rule="nonzero"/></clipPath><clipPath id="4b2faec734"><path d="M 160.542969 172 L 451 172 L 451 244 L 160.542969 244 Z M 160.542969 172 " clip-rule="nonzero"/></clipPath><clipPath id="6b1d8fd443"><path d="M 244 43.117188 L 367 43.117188 L 367 96 L 244 96 Z M 244 43.117188 " clip-rule="nonzero"/></clipPath><clipPath id="f334f1e50a"><path d="M 265 107 L 298 107 L 298 138 L 265 138 Z M 265 107 " clip-rule="nonzero"/></clipPath><clipPath id="7206684864"><path d="M 245.734375 62.105469 L 351.671875 134.394531 L 295.023438 217.40625 L 189.085938 145.117188 Z M 245.734375 62.105469 " clip-rule="nonzero"/></clipPath><clipPath id="7e9162c072"><path d="M 245.734375 62.105469 L 351.671875 134.394531 L 295.023438 217.40625 L 189.085938 145.117188 Z M 245.734375 62.105469 " clip-rule="nonzero"/></clipPath><clipPath id="3625aedd7a"><path d="M 263 106 L 299 106 L 299 139 L 263 139 Z M 263 106 " clip-rule="nonzero"/></clipPath><clipPath id="e81cc3baee"><path d="M 245.734375 62.105469 L 351.671875 134.394531 L 295.023438 217.40625 L 189.085938 145.117188 Z M 245.734375 62.105469 " clip-rule="nonzero"/></clipPath><clipPath id="b188958aca"><path d="M 245.734375 62.105469 L 351.671875 134.394531 L 295.023438 217.40625 L 189.085938 145.117188 Z M 245.734375 62.105469 " clip-rule="nonzero"/></clipPath><clipPath id="0ffc5e3f2d"><path d="M 238 118 L 293 118 L 293 176 L 238 176 Z M 238 118 " clip-rule="nonzero"/></clipPath><clipPath id="0024cd7daa"><path d="M 245.734375 62.105469 L 351.671875 134.394531 L 295.023438 217.40625 L 189.085938 145.117188 Z M 245.734375 62.105469 " clip-rule="nonzero"/></clipPath><clipPath id="f65fba62a2"><path d="M 245.734375 62.105469 L 351.671875 134.394531 L 295.023438 217.40625 L 189.085938 145.117188 Z M 245.734375 62.105469 " clip-rule="nonzero"/></clipPath><clipPath id="d5ef2faba1"><path d="M 236 118 L 293 118 L 293 182 L 236 182 Z M 236 118 " clip-rule="nonzero"/></clipPath><clipPath id="cd2c424aa6"><path d="M 245.734375 62.105469 L 351.671875 134.394531 L 295.023438 217.40625 L 189.085938 145.117188 Z M 245.734375 62.105469 " clip-rule="nonzero"/></clipPath><clipPath id="33364aaa11"><path d="M 245.734375 62.105469 L 351.671875 134.394531 L 295.023438 217.40625 L 189.085938 145.117188 Z M 245.734375 62.105469 " clip-rule="nonzero"/></clipPath><clipPath id="16f4a12da7"><path d="M 259.761719 108.007812 L 303.296875 137.71875 L 263.636719 195.835938 L 220.101562 166.128906 Z M 259.761719 108.007812 " clip-rule="nonzero"/></clipPath><clipPath id="f5b5c02431"><path d="M 259.761719 108.007812 L 303.296875 137.71875 L 263.746094 195.679688 L 220.207031 165.96875 Z M 259.761719 108.007812 " clip-rule="nonzero"/></clipPath><clipPath id="82486f5782"><path d="M 238 140 L 282 140 L 282 173 L 238 173 Z M 238 140 " clip-rule="nonzero"/></clipPath><clipPath id="e3a6ad61b2"><path d="M 245.734375 62.105469 L 351.671875 134.394531 L 295.023438 217.40625 L 189.085938 145.117188 Z M 245.734375 62.105469 " clip-rule="nonzero"/></clipPath><clipPath id="f0a7fc9e59"><path d="M 245.734375 62.105469 L 351.671875 134.394531 L 295.023438 217.40625 L 189.085938 145.117188 Z M 245.734375 62.105469 " clip-rule="nonzero"/></clipPath><clipPath id="bf42a372b2"><path d="M 244 122 L 292 122 L 292 159 L 244 159 Z M 244 122 " clip-rule="nonzero"/></clipPath><clipPath id="95f7c169a3"><path d="M 245.734375 62.105469 L 351.671875 134.394531 L 295.023438 217.40625 L 189.085938 145.117188 Z M 245.734375 62.105469 " clip-rule="nonzero"/></clipPath><clipPath id="64b85f135d"><path d="M 245.734375 62.105469 L 351.671875 134.394531 L 295.023438 217.40625 L 189.085938 145.117188 Z M 245.734375 62.105469 " clip-rule="nonzero"/></clipPath><clipPath id="384fe86b55"><path d="M 271 86 L 286 86 L 286 110 L 271 110 Z M 271 86 " clip-rule="nonzero"/></clipPath><clipPath id="1cccfc093c"><path d="M 245.734375 62.105469 L 351.671875 134.394531 L 295.023438 217.40625 L 189.085938 145.117188 Z M 245.734375 62.105469 " clip-rule="nonzero"/></clipPath><clipPath id="e2ea63ba75"><path d="M 245.734375 62.105469 L 351.671875 134.394531 L 295.023438 217.40625 L 189.085938 145.117188 Z M 245.734375 62.105469 " clip-rule="nonzero"/></clipPath><clipPath id="a391ecd3d3"><path d="M 270 85 L 281 85 L 281 93 L 270 93 Z M 270 85 " clip-rule="nonzero"/></clipPath><clipPath id="a509cfb47a"><path d="M 245.734375 62.105469 L 351.671875 134.394531 L 295.023438 217.40625 L 189.085938 145.117188 Z M 245.734375 62.105469 " clip-rule="nonzero"/></clipPath><clipPath id="1a6754529d"><path d="M 245.734375 62.105469 L 351.671875 134.394531 L 295.023438 217.40625 L 189.085938 145.117188 Z M 245.734375 62.105469 " clip-rule="nonzero"/></clipPath><clipPath id="f01be07f17"><path d="M 293 108 L 318 108 L 318 120 L 293 120 Z M 293 108 " clip-rule="nonzero"/></clipPath><clipPath id="7e51a2ae30"><path d="M 245.734375 62.105469 L 351.671875 134.394531 L 295.023438 217.40625 L 189.085938 145.117188 Z M 245.734375 62.105469 " clip-rule="nonzero"/></clipPath><clipPath id="171649bdad"><path d="M 245.734375 62.105469 L 351.671875 134.394531 L 295.023438 217.40625 L 189.085938 145.117188 Z M 245.734375 62.105469 " clip-rule="nonzero"/></clipPath><clipPath id="df56b1c603"><path d="M 311 111 L 320 111 L 320 122 L 311 122 Z M 311 111 " clip-rule="nonzero"/></clipPath><clipPath id="29830a1f8a"><path d="M 245.734375 62.105469 L 351.671875 134.394531 L 295.023438 217.40625 L 189.085938 145.117188 Z M 245.734375 62.105469 " clip-rule="nonzero"/></clipPath><clipPath id="858ac76518"><path d="M 245.734375 62.105469 L 351.671875 134.394531 L 295.023438 217.40625 L 189.085938 145.117188 Z M 245.734375 62.105469 " clip-rule="nonzero"/></clipPath><clipPath id="2f0c019a63"><path d="M 275 145 L 308 145 L 308 180 L 275 180 Z M 275 145 " clip-rule="nonzero"/></clipPath><clipPath id="d7f38967a1"><path d="M 245.734375 62.105469 L 351.671875 134.394531 L 295.023438 217.40625 L 189.085938 145.117188 Z M 245.734375 62.105469 " clip-rule="nonzero"/></clipPath><clipPath id="2625b605fc"><path d="M 245.734375 62.105469 L 351.671875 134.394531 L 295.023438 217.40625 L 189.085938 145.117188 Z M 245.734375 62.105469 " clip-rule="nonzero"/></clipPath><clipPath id="659d52420f"><path d="M 274 143 L 309 143 L 309 181 L 274 181 Z M 274 143 " clip-rule="nonzero"/></clipPath><clipPath id="b3020ea503"><path d="M 245.734375 62.105469 L 351.671875 134.394531 L 295.023438 217.40625 L 189.085938 145.117188 Z M 245.734375 62.105469 " clip-rule="nonzero"/></clipPath><clipPath id="fd106145ec"><path d="M 245.734375 62.105469 L 351.671875 134.394531 L 295.023438 217.40625 L 189.085938 145.117188 Z M 245.734375 62.105469 " clip-rule="nonzero"/></clipPath><clipPath id="6f5ebd863c"><path d="M 276 133 L 331 133 L 331 169 L 276 169 Z M 276 133 " clip-rule="nonzero"/></clipPath><clipPath id="d51a64d7d2"><path d="M 245.734375 62.105469 L 351.671875 134.394531 L 295.023438 217.40625 L 189.085938 145.117188 Z M 245.734375 62.105469 " clip-rule="nonzero"/></clipPath><clipPath id="3ce04684c8"><path d="M 245.734375 62.105469 L 351.671875 134.394531 L 295.023438 217.40625 L 189.085938 145.117188 Z M 245.734375 62.105469 " clip-rule="nonzero"/></clipPath><clipPath id="90289635e2"><path d="M 274 132 L 332 132 L 332 170 L 274 170 Z M 274 132 " clip-rule="nonzero"/></clipPath><clipPath id="c42643ce1b"><path d="M 245.734375 62.105469 L 351.671875 134.394531 L 295.023438 217.40625 L 189.085938 145.117188 Z M 245.734375 62.105469 " clip-rule="nonzero"/></clipPath><clipPath id="281176705a"><path d="M 245.734375 62.105469 L 351.671875 134.394531 L 295.023438 217.40625 L 189.085938 145.117188 Z M 245.734375 62.105469 " clip-rule="nonzero"/></clipPath><clipPath id="59ed150130"><path d="M 293.390625 117.007812 L 338.34375 147.6875 L 317.894531 177.65625 L 272.9375 146.980469 Z M 293.390625 117.007812 " clip-rule="nonzero"/></clipPath><clipPath id="0ba25661d9"><path d="M 293.390625 117.007812 L 338.191406 147.582031 L 317.742188 177.554688 L 272.9375 146.980469 Z M 293.390625 117.007812 " clip-rule="nonzero"/></clipPath><clipPath id="be4563cbbc"><path d="M 223 113 L 264 113 L 264 140 L 223 140 Z M 223 113 " clip-rule="nonzero"/></clipPath><clipPath id="d17e2246a1"><path d="M 245.734375 62.105469 L 351.671875 134.394531 L 295.023438 217.40625 L 189.085938 145.117188 Z M 245.734375 62.105469 " clip-rule="nonzero"/></clipPath><clipPath id="bbb6244665"><path d="M 245.734375 62.105469 L 351.671875 134.394531 L 295.023438 217.40625 L 189.085938 145.117188 Z M 245.734375 62.105469 " clip-rule="nonzero"/></clipPath><clipPath id="bad6d95ae4"><path d="M 221 112 L 266 112 L 266 141 L 221 141 Z M 221 112 " clip-rule="nonzero"/></clipPath><clipPath id="a36e03f4ee"><path d="M 245.734375 62.105469 L 351.671875 134.394531 L 295.023438 217.40625 L 189.085938 145.117188 Z M 245.734375 62.105469 " clip-rule="nonzero"/></clipPath><clipPath id="f5a0bdd2fd"><path d="M 245.734375 62.105469 L 351.671875 134.394531 L 295.023438 217.40625 L 189.085938 145.117188 Z M 245.734375 62.105469 " clip-rule="nonzero"/></clipPath><clipPath id="430445b899"><path d="M 227 87 L 266 87 L 266 137 L 227 137 Z M 227 87 " clip-rule="nonzero"/></clipPath><clipPath id="3f06b87218"><path d="M 245.734375 62.105469 L 351.671875 134.394531 L 295.023438 217.40625 L 189.085938 145.117188 Z M 245.734375 62.105469 " clip-rule="nonzero"/></clipPath><clipPath id="8024cc7eef"><path d="M 245.734375 62.105469 L 351.671875 134.394531 L 295.023438 217.40625 L 189.085938 145.117188 Z M 245.734375 62.105469 " clip-rule="nonzero"/></clipPath><clipPath id="df65f87e32"><path d="M 226 86 L 267 86 L 267 138 L 226 138 Z M 226 86 " clip-rule="nonzero"/></clipPath><clipPath id="922cbbb7d4"><path d="M 245.734375 62.105469 L 351.671875 134.394531 L 295.023438 217.40625 L 189.085938 145.117188 Z M 245.734375 62.105469 " clip-rule="nonzero"/></clipPath><clipPath id="db80828f91"><path d="M 245.734375 62.105469 L 351.671875 134.394531 L 295.023438 217.40625 L 189.085938 145.117188 Z M 245.734375 62.105469 " clip-rule="nonzero"/></clipPath><clipPath id="655282a413"><path d="M 359 161 L 389 161 L 389 194 L 359 194 Z M 359 161 " clip-rule="nonzero"/></clipPath><clipPath id="0f07782e24"><path d="M 315.859375 215.730469 L 383.367188 106.6875 L 468.816406 159.589844 L 401.308594 268.632812 Z M 315.859375 215.730469 " clip-rule="nonzero"/></clipPath><clipPath id="af5f1ef84b"><path d="M 315.859375 215.730469 L 383.367188 106.6875 L 468.816406 159.589844 L 401.308594 268.632812 Z M 315.859375 215.730469 " clip-rule="nonzero"/></clipPath><clipPath id="479cffc212"><path d="M 358 159 L 390 159 L 390 196 L 358 196 Z M 358 159 " clip-rule="nonzero"/></clipPath><clipPath id="f16c6ed67b"><path d="M 315.859375 215.730469 L 383.367188 106.6875 L 468.816406 159.589844 L 401.308594 268.632812 Z M 315.859375 215.730469 " clip-rule="nonzero"/></clipPath><clipPath id="fe0f036c37"><path d="M 315.859375 215.730469 L 383.367188 106.6875 L 468.816406 159.589844 L 401.308594 268.632812 Z M 315.859375 215.730469 " clip-rule="nonzero"/></clipPath><clipPath id="dffa760967"><path d="M 371 165 L 429 165 L 429 220 L 371 220 Z M 371 165 " clip-rule="nonzero"/></clipPath><clipPath id="4decbea73a"><path d="M 315.859375 215.730469 L 383.367188 106.6875 L 468.816406 159.589844 L 401.308594 268.632812 Z M 315.859375 215.730469 " clip-rule="nonzero"/></clipPath><clipPath id="4a294ef6f2"><path d="M 315.859375 215.730469 L 383.367188 106.6875 L 468.816406 159.589844 L 401.308594 268.632812 Z M 315.859375 215.730469 " clip-rule="nonzero"/></clipPath><clipPath id="e80b6e0491"><path d="M 371 164 L 436 164 L 436 221 L 371 221 Z M 371 164 " clip-rule="nonzero"/></clipPath><clipPath id="f6163c0b31"><path d="M 315.859375 215.730469 L 383.367188 106.6875 L 468.816406 159.589844 L 401.308594 268.632812 Z M 315.859375 215.730469 " clip-rule="nonzero"/></clipPath><clipPath id="612f7384d9"><path d="M 315.859375 215.730469 L 383.367188 106.6875 L 468.816406 159.589844 L 401.308594 268.632812 Z M 315.859375 215.730469 " clip-rule="nonzero"/></clipPath><clipPath id="4c7f7d0433"><path d="M 361.09375 199.679688 L 388.839844 154.863281 L 448.664062 191.902344 L 420.917969 236.714844 Z M 361.09375 199.679688 " clip-rule="nonzero"/></clipPath><clipPath id="c47a5fbc2a"><path d="M 361.09375 199.679688 L 388.839844 154.863281 L 448.5 191.800781 L 420.753906 236.613281 Z M 361.09375 199.679688 " clip-rule="nonzero"/></clipPath><clipPath id="70b732f43b"><path d="M 394 175 L 426 175 L 426 219 L 394 219 Z M 394 175 " clip-rule="nonzero"/></clipPath><clipPath id="0f666b04a4"><path d="M 315.859375 215.730469 L 383.367188 106.6875 L 468.816406 159.589844 L 401.308594 268.632812 Z M 315.859375 215.730469 " clip-rule="nonzero"/></clipPath><clipPath id="dee25d0693"><path d="M 315.859375 215.730469 L 383.367188 106.6875 L 468.816406 159.589844 L 401.308594 268.632812 Z M 315.859375 215.730469 " clip-rule="nonzero"/></clipPath><clipPath id="3dae6bc210"><path d="M 375 166 L 411 166 L 411 214 L 375 214 Z M 375 166 " clip-rule="nonzero"/></clipPath><clipPath id="e3d4eaeb76"><path d="M 315.859375 215.730469 L 383.367188 106.6875 L 468.816406 159.589844 L 401.308594 268.632812 Z M 315.859375 215.730469 " clip-rule="nonzero"/></clipPath><clipPath id="b46ec57c6f"><path d="M 315.859375 215.730469 L 383.367188 106.6875 L 468.816406 159.589844 L 401.308594 268.632812 Z M 315.859375 215.730469 " clip-rule="nonzero"/></clipPath><clipPath id="f4f56c7c30"><path d="M 338 174 L 362 174 L 362 189 L 338 189 Z M 338 174 " clip-rule="nonzero"/></clipPath><clipPath id="e24aadb23b"><path d="M 315.859375 215.730469 L 383.367188 106.6875 L 468.816406 159.589844 L 401.308594 268.632812 Z M 315.859375 215.730469 " clip-rule="nonzero"/></clipPath><clipPath id="d7a7c67f6e"><path d="M 315.859375 215.730469 L 383.367188 106.6875 L 468.816406 159.589844 L 401.308594 268.632812 Z M 315.859375 215.730469 " clip-rule="nonzero"/></clipPath><clipPath id="3cd910f1be"><path d="M 337 180 L 346 180 L 346 190 L 337 190 Z M 337 180 " clip-rule="nonzero"/></clipPath><clipPath id="6524354cf3"><path d="M 315.859375 215.730469 L 383.367188 106.6875 L 468.816406 159.589844 L 401.308594 268.632812 Z M 315.859375 215.730469 " clip-rule="nonzero"/></clipPath><clipPath id="5abc36030b"><path d="M 315.859375 215.730469 L 383.367188 106.6875 L 468.816406 159.589844 L 401.308594 268.632812 Z M 315.859375 215.730469 " clip-rule="nonzero"/></clipPath><clipPath id="7aee4830e7"><path d="M 358 141 L 371 141 L 371 166 L 358 166 Z M 358 141 " clip-rule="nonzero"/></clipPath><clipPath id="fe64007904"><path d="M 315.859375 215.730469 L 383.367188 106.6875 L 468.816406 159.589844 L 401.308594 268.632812 Z M 315.859375 215.730469 " clip-rule="nonzero"/></clipPath><clipPath id="7faef50eca"><path d="M 315.859375 215.730469 L 383.367188 106.6875 L 468.816406 159.589844 L 401.308594 268.632812 Z M 315.859375 215.730469 " clip-rule="nonzero"/></clipPath><clipPath id="397f567f2d"><path d="M 362 139 L 372 139 L 372 148 L 362 148 Z M 362 139 " clip-rule="nonzero"/></clipPath><clipPath id="aff081704a"><path d="M 315.859375 215.730469 L 383.367188 106.6875 L 468.816406 159.589844 L 401.308594 268.632812 Z M 315.859375 215.730469 " clip-rule="nonzero"/></clipPath><clipPath id="74fdcd250b"><path d="M 315.859375 215.730469 L 383.367188 106.6875 L 468.816406 159.589844 L 401.308594 268.632812 Z M 315.859375 215.730469 " clip-rule="nonzero"/></clipPath><clipPath id="f49b24d2b3"><path d="M 397 149 L 432 149 L 432 182 L 397 182 Z M 397 149 " clip-rule="nonzero"/></clipPath><clipPath id="aea3c643f9"><path d="M 315.859375 215.730469 L 383.367188 106.6875 L 468.816406 159.589844 L 401.308594 268.632812 Z M 315.859375 215.730469 " clip-rule="nonzero"/></clipPath><clipPath id="31b8944c14"><path d="M 315.859375 215.730469 L 383.367188 106.6875 L 468.816406 159.589844 L 401.308594 268.632812 Z M 315.859375 215.730469 " clip-rule="nonzero"/></clipPath><clipPath id="2f0c11fe56"><path d="M 396 148 L 433 148 L 433 184 L 396 184 Z M 396 148 " clip-rule="nonzero"/></clipPath><clipPath id="7bb613c329"><path d="M 315.859375 215.730469 L 383.367188 106.6875 L 468.816406 159.589844 L 401.308594 268.632812 Z M 315.859375 215.730469 " clip-rule="nonzero"/></clipPath><clipPath id="1015d70221"><path d="M 315.859375 215.730469 L 383.367188 106.6875 L 468.816406 159.589844 L 401.308594 268.632812 Z M 315.859375 215.730469 " clip-rule="nonzero"/></clipPath><clipPath id="8b3c511baf"><path d="M 384 126 L 419 126 L 419 182 L 384 182 Z M 384 126 " clip-rule="nonzero"/></clipPath><clipPath id="5b94c95362"><path d="M 315.859375 215.730469 L 383.367188 106.6875 L 468.816406 159.589844 L 401.308594 268.632812 Z M 315.859375 215.730469 " clip-rule="nonzero"/></clipPath><clipPath id="8af940cb8a"><path d="M 315.859375 215.730469 L 383.367188 106.6875 L 468.816406 159.589844 L 401.308594 268.632812 Z M 315.859375 215.730469 " clip-rule="nonzero"/></clipPath><clipPath id="33517eaa61"><path d="M 383 125 L 420 125 L 420 184 L 383 184 Z M 383 125 " clip-rule="nonzero"/></clipPath><clipPath id="0e254720e1"><path d="M 315.859375 215.730469 L 383.367188 106.6875 L 468.816406 159.589844 L 401.308594 268.632812 Z M 315.859375 215.730469 " clip-rule="nonzero"/></clipPath><clipPath id="22998d967b"><path d="M 315.859375 215.730469 L 383.367188 106.6875 L 468.816406 159.589844 L 401.308594 268.632812 Z M 315.859375 215.730469 " clip-rule="nonzero"/></clipPath><clipPath id="a2a008251a"><path d="M 368.589844 165.683594 L 397.238281 119.410156 L 428.089844 138.507812 L 399.441406 184.78125 Z M 368.589844 165.683594 " clip-rule="nonzero"/></clipPath><clipPath id="03825b43e3"><path d="M 368.589844 165.683594 L 397.140625 119.566406 L 427.992188 138.664062 L 399.441406 184.78125 Z M 368.589844 165.683594 " clip-rule="nonzero"/></clipPath><clipPath id="9289991eba"><path d="M 367 194 L 394 194 L 394 236 L 367 236 Z M 367 194 " clip-rule="nonzero"/></clipPath><clipPath id="760fb017a8"><path d="M 315.859375 215.730469 L 383.367188 106.6875 L 468.816406 159.589844 L 401.308594 268.632812 Z M 315.859375 215.730469 " clip-rule="nonzero"/></clipPath><clipPath id="a360cb9352"><path d="M 315.859375 215.730469 L 383.367188 106.6875 L 468.816406 159.589844 L 401.308594 268.632812 Z M 315.859375 215.730469 " clip-rule="nonzero"/></clipPath><clipPath id="cb494f0c64"><path d="M 366 193 L 395 193 L 395 237 L 366 237 Z M 366 193 " clip-rule="nonzero"/></clipPath><clipPath id="20ead6c6d4"><path d="M 315.859375 215.730469 L 383.367188 106.6875 L 468.816406 159.589844 L 401.308594 268.632812 Z M 315.859375 215.730469 " clip-rule="nonzero"/></clipPath><clipPath id="cbe740afab"><path d="M 315.859375 215.730469 L 383.367188 106.6875 L 468.816406 159.589844 L 401.308594 268.632812 Z M 315.859375 215.730469 " clip-rule="nonzero"/></clipPath><clipPath id="4f2940453e"><path d="M 341 193 L 390 193 L 390 233 L 341 233 Z M 341 193 " clip-rule="nonzero"/></clipPath><clipPath id="8a598334e4"><path d="M 315.859375 215.730469 L 383.367188 106.6875 L 468.816406 159.589844 L 401.308594 268.632812 Z M 315.859375 215.730469 " clip-rule="nonzero"/></clipPath><clipPath id="23683a17ff"><path d="M 315.859375 215.730469 L 383.367188 106.6875 L 468.816406 159.589844 L 401.308594 268.632812 Z M 315.859375 215.730469 " clip-rule="nonzero"/></clipPath><clipPath id="3cadac2535"><path d="M 340 192 L 391 192 L 391 234 L 340 234 Z M 340 192 " clip-rule="nonzero"/></clipPath><clipPath id="880d12865b"><path d="M 315.859375 215.730469 L 383.367188 106.6875 L 468.816406 159.589844 L 401.308594 268.632812 Z M 315.859375 215.730469 " clip-rule="nonzero"/></clipPath><clipPath id="eb6c1ed6f6"><path d="M 315.859375 215.730469 L 383.367188 106.6875 L 468.816406 159.589844 L 401.308594 268.632812 Z M 315.859375 215.730469 " clip-rule="nonzero"/></clipPath></defs><g clip-path="url(#65ea6d1c97)"><path fill="#a6a6a6" d="M 209.835938 291.882812 C 211.824219 317.308594 262.136719 331.832031 305.40625 331.140625 C 350.359375 330.417969 404.015625 314.621094 401.4375 288.160156 C 401.429688 288.070312 401.402344 287.984375 401.390625 287.898438 C 378.144531 298.730469 343.164062 306.433594 310.78125 306.871094 C 275.425781 307.347656 235.097656 303.652344 209.835938 291.882812 Z M 209.835938 291.882812 " fill-opacity="1" fill-rule="nonzero"/></g><path fill="#545454" d="M 427.75 259.640625 C 427.101562 256.617188 425.359375 253.796875 422.71875 251.167969 C 412.273438 257.765625 397.671875 263.828125 380.652344 268.671875 C 358.984375 274.839844 333.40625 279.027344 307.507812 279.8125 C 273.480469 280.835938 243.832031 277.929688 220.855469 271.644531 C 206.253906 267.652344 194.355469 262.300781 185.765625 255.707031 C 185.304688 257.203125 185.027344 258.773438 184.984375 260.417969 C 184.605469 274.511719 194.414062 284.699219 209.84375 291.882812 C 235.101562 303.652344 275.433594 307.347656 310.789062 306.871094 C 343.171875 306.433594 378.15625 298.726562 401.394531 287.898438 C 419.027344 279.675781 429.902344 269.65625 427.75 259.640625 Z M 427.75 259.640625 " fill-opacity="1" fill-rule="nonzero"/><path fill="#a6a6a6" d="M 439.535156 227.050781 C 438.542969 222.832031 435.285156 218.996094 430.261719 215.53125 C 418.183594 222.425781 401.558594 228.75 382.425781 233.605469 C 359.914062 239.316406 333.957031 242.996094 307.910156 243.191406 C 277.554688 243.410156 244.738281 240.484375 217.820312 233.8125 C 200.136719 229.429688 185.011719 223.429688 174.796875 215.636719 C 171.929688 218.933594 170.257812 222.671875 170.15625 226.925781 C 169.894531 238.136719 175.457031 247.804688 185.757812 255.707031 C 194.339844 262.300781 206.242188 267.652344 220.84375 271.644531 C 243.820312 277.929688 273.472656 280.835938 307.496094 279.8125 C 333.394531 279.027344 358.972656 274.839844 380.640625 268.671875 C 397.660156 263.828125 412.261719 257.761719 422.707031 251.167969 C 434.886719 243.480469 441.417969 235.078125 439.535156 227.050781 Z M 439.535156 227.050781 " fill-opacity="1" fill-rule="nonzero"/><g clip-path="url(#4b2faec734)"><path fill="#545454" d="M 450.511719 189.855469 C 448.867188 183.347656 441.414062 177.734375 430.125 173.019531 C 417.328125 182.660156 394.328125 191.210938 367.953125 196.695312 C 349.949219 200.433594 330.375 202.738281 311.402344 202.96875 C 283.484375 203.3125 252.386719 201.402344 226.289062 196.023438 C 203.304688 191.28125 184.21875 183.839844 174.609375 172.859375 C 166.34375 177.515625 161.105469 183.339844 160.875 190.644531 C 160.566406 200.457031 165.761719 208.738281 174.796875 215.632812 C 185.011719 223.421875 200.144531 229.425781 217.820312 233.808594 C 244.738281 240.480469 277.554688 243.410156 307.910156 243.183594 C 333.957031 242.992188 359.914062 239.3125 382.425781 233.597656 C 401.550781 228.742188 418.183594 222.425781 430.261719 215.523438 C 444.695312 207.28125 452.625 198.222656 450.511719 189.855469 Z M 450.511719 189.855469 " fill-opacity="1" fill-rule="nonzero"/></g><path fill="#a6a6a6" d="M 440.546875 154.371094 C 438.90625 147.503906 431.113281 141.632812 419.378906 136.773438 C 409.058594 145.546875 391.304688 153.515625 370.601562 159.152344 C 352.238281 164.152344 331.558594 167.324219 311.6875 167.589844 C 283.980469 167.964844 252.941406 165.425781 228.292969 158.503906 C 209.386719 153.191406 194.25 145.300781 187.25 134.160156 C 175.832031 139.25 168.183594 146.050781 167.910156 155.148438 C 167.707031 161.875 170.136719 167.742188 174.605469 172.847656 C 184.210938 183.828125 203.300781 191.269531 226.28125 196.011719 C 252.375 201.394531 283.480469 203.300781 311.398438 202.957031 C 330.367188 202.726562 349.941406 200.421875 367.949219 196.683594 C 394.324219 191.207031 417.316406 182.648438 430.117188 173.007812 C 438.039062 167.0625 442.058594 160.683594 440.546875 154.371094 Z M 440.546875 154.371094 " fill-opacity="1" fill-rule="nonzero"/><path fill="#545454" d="M 428.6875 118.117188 C 426.882812 109.699219 416.785156 102.785156 402.027344 97.378906 C 397.339844 107.730469 380.941406 117.007812 360.429688 123.15625 C 345.152344 127.738281 327.601562 130.589844 310.921875 130.859375 C 286.75 131.246094 259.617188 129.332031 239.820312 122.109375 C 224.109375 116.375 213.027344 107.296875 211.703125 93.359375 C 195.476562 98.710938 183.386719 106.765625 183.0625 118.902344 C 182.910156 124.5625 184.417969 129.632812 187.261719 134.164062 C 194.253906 145.300781 209.394531 153.191406 228.304688 158.507812 C 252.953125 165.433594 283.988281 167.972656 311.699219 167.597656 C 331.570312 167.328125 352.246094 164.15625 370.609375 159.15625 C 391.3125 153.519531 409.070312 145.546875 419.390625 136.78125 C 426.449219 130.765625 430.03125 124.386719 428.6875 118.117188 Z M 428.6875 118.117188 " fill-opacity="1" fill-rule="nonzero"/><path fill="#a6a6a6" d="M 403.1875 89.066406 C 401.164062 77.984375 385.878906 69.753906 365.621094 64.351562 C 365.902344 65.058594 366.125 65.785156 366.25 66.527344 C 367.460938 73.789062 360.460938 80.695312 349.695312 85.957031 C 338.203125 91.570312 322.417969 95.304688 307.683594 95.5625 C 288.554688 95.898438 266.519531 93.746094 254.210938 85.0625 C 248.164062 80.792969 244.449219 74.953125 244.613281 67.03125 C 244.648438 65.484375 244.921875 64.042969 245.390625 62.691406 C 227.367188 67.316406 211.882812 75.460938 211.558594 89.789062 C 211.53125 91.015625 211.589844 92.203125 211.703125 93.363281 C 213.027344 107.300781 224.113281 116.386719 239.820312 122.113281 C 259.617188 129.335938 286.75 131.253906 310.921875 130.863281 C 327.601562 130.597656 345.152344 127.746094 360.429688 123.164062 C 380.941406 117.011719 397.339844 107.734375 402.027344 97.382812 C 403.253906 94.667969 403.699219 91.886719 403.1875 89.066406 Z M 403.1875 89.066406 " fill-opacity="1" fill-rule="nonzero"/><g clip-path="url(#6b1d8fd443)"><path fill="#545454" d="M 366.25 66.527344 C 366.125 65.785156 365.902344 65.058594 365.621094 64.351562 C 360.316406 50.789062 327.839844 44 301.679688 44 C 301.679688 44 252.1875 43.128906 245.386719 62.6875 C 244.921875 64.035156 244.640625 65.476562 244.609375 67.027344 C 244.441406 74.945312 248.15625 80.789062 254.207031 85.058594 C 266.515625 93.746094 288.550781 95.894531 307.679688 95.554688 C 322.410156 95.296875 338.195312 91.5625 349.691406 85.953125 C 360.460938 80.695312 367.460938 73.789062 366.25 66.527344 Z M 366.25 66.527344 " fill-opacity="1" fill-rule="nonzero"/></g><path fill="#ffffff" d="M 288.03125 230.050781 C 268.214844 193.8125 227.128906 215.726562 256.71875 251.410156 C 264.660156 260.984375 275.726562 272.351562 290.882812 282.65625 C 303.113281 274.570312 342.511719 230.355469 325.953125 214.195312 C 304.734375 193.484375 288.03125 230.050781 288.03125 230.050781 Z M 288.03125 230.050781 " fill-opacity="1" fill-rule="nonzero"/><g clip-path="url(#f334f1e50a)"><g clip-path="url(#7206684864)"><g clip-path="url(#7e9162c072)"><path fill="#000000" d="M 294.703125 134.777344 C 299.503906 127.761719 298.59375 115.429688 290.746094 110.0625 C 282.898438 104.691406 271.078125 108.320312 266.277344 115.335938 C 261.480469 122.351562 271.785156 120.9375 279.636719 126.304688 C 287.488281 131.671875 289.90625 141.792969 294.703125 134.777344 " fill-opacity="1" fill-rule="nonzero"/></g></g></g><g clip-path="url(#3625aedd7a)"><g clip-path="url(#e81cc3baee)"><g clip-path="url(#b188958aca)"><path fill="#000000" d="M 287.253906 132.21875 C 288.492188 133.703125 289.558594 134.988281 290.5 135.628906 C 291.175781 136.09375 292.019531 136.671875 293.757812 134.128906 C 298.113281 127.761719 297.453125 116.023438 290.105469 111 C 282.757812 105.972656 271.582031 109.617188 267.226562 115.984375 C 265.488281 118.523438 266.332031 119.101562 267.007812 119.5625 C 267.949219 120.207031 269.53125 120.738281 271.363281 121.351562 C 274.015625 122.238281 277.3125 123.339844 280.277344 125.367188 C 283.242188 127.394531 285.464844 130.070312 287.253906 132.21875 Z M 265.332031 114.6875 C 270.371094 107.320312 282.847656 103.285156 291.386719 109.125 C 299.925781 114.964844 300.691406 128.058594 295.652344 135.425781 C 293.648438 138.355469 291.484375 139.054688 289.21875 137.503906 C 288.007812 136.679688 286.847656 135.28125 285.5 133.660156 C 283.714844 131.519531 281.691406 129.085938 278.996094 127.242188 C 276.300781 125.398438 273.300781 124.394531 270.65625 123.507812 C 268.660156 122.839844 266.933594 122.265625 265.726562 121.4375 C 263.460938 119.886719 263.328125 117.617188 265.332031 114.6875 " fill-opacity="1" fill-rule="nonzero"/></g></g></g><g clip-path="url(#0ffc5e3f2d)"><g clip-path="url(#0024cd7daa)"><g clip-path="url(#f65fba62a2)"><path fill="#ffffff" d="M 281.464844 123.179688 C 292.921875 131.011719 296.398438 145.855469 286.746094 159.96875 C 277.84375 172.984375 263.859375 179.1875 252.554688 173.789062 C 251.605469 173.335938 245.332031 169.015625 244.480469 168.183594 C 235.640625 159.539062 236.460938 144.46875 245.265625 131.597656 C 254.917969 117.484375 270.011719 115.34375 281.464844 123.179688 " fill-opacity="1" fill-rule="nonzero"/></g></g></g><g clip-path="url(#d5ef2faba1)"><g clip-path="url(#cd2c424aa6)"><g clip-path="url(#33364aaa11)"><g clip-path="url(#16f4a12da7)"><g clip-path="url(#f5b5c02431)"><path fill="#000000" d="M 245.570312 133.078125 C 236.878906 145.789062 236.496094 160.230469 244.640625 168.199219 C 245.9375 169.464844 251.460938 173.136719 252.40625 173.589844 C 262.863281 178.582031 276.332031 173.058594 285.15625 160.152344 C 293.875 147.402344 291.828125 132.929688 280.175781 124.960938 C 268.519531 116.988281 254.289062 120.328125 245.570312 133.078125 Z M 243.207031 170.507812 C 243.121094 170.085938 242.894531 169.707031 242.59375 169.394531 C 238.371094 165.019531 236.253906 159.113281 236.46875 152.273438 C 236.675781 145.550781 239.234375 138.273438 243.675781 131.78125 C 248.457031 124.792969 254.730469 120.328125 261.816406 118.867188 C 268.515625 117.488281 275.496094 118.980469 281.472656 123.066406 C 287.445312 127.152344 291.367188 133.117188 292.507812 139.863281 C 293.71875 146.996094 291.832031 154.460938 287.050781 161.449219 C 277.890625 174.847656 263.894531 180.753906 252.582031 176.175781 C 252.003906 175.941406 251.359375 175.949219 250.789062 176.195312 C 247.3125 177.699219 243.511719 182.539062 242.4375 181.089844 C 240.9375 179.070312 243.941406 174.082031 243.207031 170.507812 " fill-opacity="1" fill-rule="nonzero"/></g></g></g></g></g><g clip-path="url(#82486f5782)"><g clip-path="url(#e3a6ad61b2)"><g clip-path="url(#f0a7fc9e59)"><path fill="#000000" d="M 238.542969 150.980469 C 262.546875 155.1875 271.808594 172.75 271.898438 172.925781 L 281.210938 167.472656 C 280.75 166.578125 269.613281 145.445312 240.941406 140.421875 L 238.542969 150.980469 " fill-opacity="1" fill-rule="nonzero"/></g></g></g><g clip-path="url(#bf42a372b2)"><g clip-path="url(#95f7c169a3)"><g clip-path="url(#64b85f135d)"><path fill="#000000" d="M 244.703125 131.0625 C 268.792969 135.15625 287.355469 158.769531 287.445312 158.945312 L 291.292969 148.351562 C 290.835938 147.449219 284.054688 127.261719 255.28125 122.375 L 244.703125 131.0625 " fill-opacity="1" fill-rule="nonzero"/></g></g></g><g clip-path="url(#384fe86b55)"><g clip-path="url(#1cccfc093c)"><g clip-path="url(#e2ea63ba75)"><path fill="#000000" d="M 280.492188 108.394531 L 282.511719 109.460938 C 282.578125 109.300781 284.144531 105.453125 285.078125 100.96875 C 286.402344 94.582031 285.773438 90.378906 283.160156 88.117188 C 280.648438 85.945312 276.792969 85.925781 271.375 88.050781 L 272.644531 89.832031 C 277.101562 88.082031 280.308594 87.894531 281.929688 89.292969 C 285.367188 92.265625 282.871094 102.585938 280.492188 108.394531 " fill-opacity="1" fill-rule="nonzero"/></g></g></g><g clip-path="url(#a391ecd3d3)"><g clip-path="url(#a509cfb47a)"><g clip-path="url(#1a6754529d)"><path fill="#000000" d="M 272.601562 86.210938 C 270.496094 87.738281 270.019531 90.21875 271.535156 91.746094 C 273.050781 93.273438 275.984375 93.269531 278.085938 91.742188 C 280.191406 90.210938 280.667969 87.734375 279.152344 86.207031 C 277.636719 84.679688 274.703125 84.679688 272.601562 86.210938 " fill-opacity="1" fill-rule="nonzero"/></g></g></g><g clip-path="url(#f01be07f17)"><g clip-path="url(#7e51a2ae30)"><g clip-path="url(#171649bdad)"><path fill="#000000" d="M 295.59375 118.726562 L 293.871094 117.230469 C 293.996094 117.109375 297.011719 114.253906 300.855469 111.761719 C 306.328125 108.210938 310.472656 107.269531 313.527344 108.886719 C 316.460938 110.441406 317.878906 114.023438 317.863281 119.847656 L 315.742188 119.308594 C 315.753906 114.519531 314.769531 111.460938 312.878906 110.460938 C 308.859375 108.332031 300.144531 114.402344 295.59375 118.726562 " fill-opacity="1" fill-rule="nonzero"/></g></g></g><g clip-path="url(#df56b1c603)"><g clip-path="url(#29830a1f8a)"><g clip-path="url(#858ac76518)"><path fill="#000000" d="M 319.132812 118.035156 C 318.472656 120.550781 316.335938 121.894531 314.363281 121.035156 C 312.390625 120.179688 311.328125 117.445312 311.988281 114.929688 C 312.652344 112.414062 314.789062 111.070312 316.761719 111.929688 C 318.734375 112.785156 319.796875 115.519531 319.132812 118.035156 " fill-opacity="1" fill-rule="nonzero"/></g></g></g><g clip-path="url(#2f0c019a63)"><g clip-path="url(#d7f38967a1)"><g clip-path="url(#2625b605fc)"><path fill="#ffffff" d="M 275.859375 145.015625 C 275.859375 145.015625 301.042969 144.957031 306.074219 159.628906 C 311.101562 174.304688 301.78125 182.628906 290.96875 178.988281 C 280.15625 175.351562 275.859375 145.015625 275.859375 145.015625 " fill-opacity="1" fill-rule="nonzero"/></g></g></g><g clip-path="url(#659d52420f)"><g clip-path="url(#b3020ea503)"><g clip-path="url(#fd106145ec)"><path fill="#000000" d="M 277.082031 146.105469 C 277.976562 151.460938 281.835938 171.796875 289.574219 177.089844 C 290.152344 177.488281 290.75 177.789062 291.339844 177.988281 C 296.070312 179.582031 300.59375 178.761719 303.445312 175.792969 C 306.75 172.351562 307.355469 166.605469 305.101562 160.027344 C 304.042969 156.941406 301.921875 154.292969 298.800781 152.15625 C 291.527344 147.183594 280.757812 146.269531 277.082031 146.105469 Z M 274.839844 145.222656 L 274.664062 143.964844 L 275.914062 143.964844 C 276.511719 143.960938 290.671875 144 300.007812 150.386719 C 303.480469 152.761719 305.847656 155.738281 307.046875 159.230469 C 309.570312 166.597656 308.777344 173.15625 304.871094 177.226562 C 301.425781 180.804688 296.09375 181.839844 290.597656 179.992188 C 289.839844 179.738281 289.085938 179.355469 288.363281 178.859375 C 278.777344 172.304688 274.996094 146.324219 274.839844 145.222656 " fill-opacity="1" fill-rule="nonzero"/></g></g></g><g clip-path="url(#6f5ebd863c)"><g clip-path="url(#d51a64d7d2)"><g clip-path="url(#3ce04684c8)"><path fill="#ffffff" d="M 276.332031 144.820312 C 276.332031 144.820312 303.988281 125.628906 320.179688 136.699219 C 336.375 147.769531 332.167969 163.296875 317.632812 167.816406 C 303.097656 172.339844 276.332031 144.820312 276.332031 144.820312 " fill-opacity="1" fill-rule="nonzero"/></g></g></g><g clip-path="url(#90289635e2)"><g clip-path="url(#c42643ce1b)"><g clip-path="url(#281176705a)"><g clip-path="url(#59ed150130)"><g clip-path="url(#0ba25661d9)"><path fill="#000000" d="M 292.535156 137.574219 C 285.855469 140.121094 280.265625 143.492188 277.980469 144.953125 C 280.394531 147.328125 287.386719 153.972656 295.277344 159.371094 C 295.28125 159.371094 295.28125 159.371094 295.28125 159.371094 C 304.695312 165.808594 312.339844 168.382812 317.386719 166.8125 C 323.859375 164.800781 328.324219 160.4375 329.328125 155.140625 C 330.488281 149.015625 326.9375 142.617188 319.578125 137.582031 C 311.570312 132.109375 300.453125 134.558594 292.535156 137.574219 Z M 275.582031 145.582031 L 274.722656 144.699219 L 275.789062 143.960938 C 276.074219 143.761719 282.914062 139.046875 291.875 135.625 C 303.894531 131.035156 313.890625 131.101562 320.796875 135.820312 C 328.820312 141.308594 332.667969 148.457031 331.34375 155.425781 C 330.183594 161.554688 325.152344 166.558594 317.878906 168.820312 C 312.140625 170.605469 304.132812 168.023438 294.070312 161.140625 C 284.160156 154.363281 275.667969 145.671875 275.582031 145.582031 " fill-opacity="1" fill-rule="nonzero"/></g></g></g></g></g><g clip-path="url(#be4563cbbc)"><g clip-path="url(#d17e2246a1)"><g clip-path="url(#bbb6244665)"><path fill="#ffffff" d="M 263.628906 136.667969 C 263.628906 136.667969 254.5 113.195312 239.003906 113.859375 C 223.503906 114.527344 219.152344 126.242188 226.480469 134.984375 C 233.8125 143.726562 263.628906 136.667969 263.628906 136.667969 " fill-opacity="1" fill-rule="nonzero"/></g></g></g><g clip-path="url(#bad6d95ae4)"><g clip-path="url(#a36e03f4ee)"><g clip-path="url(#f5a0bdd2fd)"><path fill="#000000" d="M 248.613281 117.910156 C 245.484375 115.78125 242.246094 114.773438 238.988281 114.910156 C 232.039062 115.210938 226.910156 117.867188 224.910156 122.203125 C 223.1875 125.9375 224.070312 130.449219 227.277344 134.273438 C 227.679688 134.75 228.179688 135.195312 228.757812 135.589844 C 236.507812 140.867188 256.851562 137.046875 262.167969 135.925781 C 260.671875 132.566406 255.894531 122.867188 248.613281 117.910156 Z M 227.554688 137.363281 C 227.550781 137.363281 227.554688 137.363281 227.550781 137.363281 C 226.828125 136.867188 226.199219 136.308594 225.683594 135.695312 C 221.960938 131.25 220.976562 125.90625 223.058594 121.394531 C 225.421875 116.273438 231.238281 113.144531 239.019531 112.808594 C 242.707031 112.652344 246.34375 113.769531 249.820312 116.140625 C 259.171875 122.503906 264.367188 135.675781 264.585938 136.230469 L 265.039062 137.398438 L 263.804688 137.691406 C 262.71875 137.949219 237.152344 143.898438 227.554688 137.363281 " fill-opacity="1" fill-rule="nonzero"/></g></g></g><g clip-path="url(#430445b899)"><g clip-path="url(#3f06b87218)"><g clip-path="url(#8024cc7eef)"><path fill="#ffffff" d="M 263.636719 136.15625 C 263.636719 136.15625 271.421875 103.40625 255.214844 92.363281 C 239 81.320312 226.078125 90.898438 227.164062 106.078125 C 228.253906 121.265625 263.636719 136.15625 263.636719 136.15625 " fill-opacity="1" fill-rule="nonzero"/></g></g></g><g clip-path="url(#df65f87e32)"><g clip-path="url(#922cbbb7d4)"><g clip-path="url(#db80828f91)"><path fill="#000000" d="M 254.609375 93.25 C 247.238281 88.230469 239.988281 87.257812 234.707031 90.570312 C 230.140625 93.4375 227.707031 99.183594 228.191406 105.945312 C 228.570312 111.21875 233.75 117.398438 243.175781 123.816406 C 243.175781 123.816406 243.179688 123.816406 243.179688 123.816406 C 251.082031 129.199219 259.820312 133.285156 262.910156 134.671875 C 263.4375 132.011719 264.539062 125.574219 264.476562 118.429688 C 264.398438 109.957031 262.625 98.710938 254.609375 93.25 Z M 241.972656 125.589844 C 231.894531 118.726562 226.570312 112.210938 226.140625 106.21875 C 225.59375 98.621094 228.421875 92.109375 233.703125 88.796875 C 239.710938 85.023438 247.769531 86 255.808594 91.472656 C 262.71875 96.179688 266.425781 105.46875 266.53125 118.332031 C 266.613281 127.921875 264.714844 136.007812 264.636719 136.347656 L 264.335938 137.609375 L 263.199219 137.132812 C 263.085938 137.085938 251.894531 132.34375 241.972656 125.589844 " fill-opacity="1" fill-rule="nonzero"/></g></g></g><g clip-path="url(#655282a413)"><g clip-path="url(#0f07782e24)"><g clip-path="url(#af5f1ef84b)"><path fill="#050606" d="M 386.28125 163.578125 C 379.058594 159.097656 366.78125 160.550781 361.769531 168.632812 C 356.753906 176.714844 360.902344 188.359375 368.121094 192.839844 C 375.34375 197.324219 373.472656 187.089844 378.488281 179.007812 C 383.503906 170.929688 393.503906 168.0625 386.28125 163.578125 " fill-opacity="1" fill-rule="nonzero"/></g></g></g><g clip-path="url(#479cffc212)"><g clip-path="url(#f16c6ed67b)"><g clip-path="url(#fe0f036c37)"><path fill="#050606" d="M 384.058594 171.136719 C 385.488281 169.835938 386.71875 168.710938 387.320312 167.742188 C 387.753906 167.046875 388.292969 166.179688 385.675781 164.554688 C 379.121094 160.488281 367.425781 161.667969 362.730469 169.230469 C 358.039062 176.796875 362.175781 187.800781 368.730469 191.867188 C 371.34375 193.492188 371.882812 192.621094 372.316406 191.925781 C 372.917969 190.957031 373.375 189.351562 373.90625 187.496094 C 374.675781 184.808594 375.628906 181.460938 377.523438 178.410156 C 379.417969 175.359375 381.988281 173.019531 384.058594 171.136719 Z M 367.515625 193.816406 C 359.933594 189.109375 355.347656 176.824219 360.800781 168.035156 C 366.257812 159.246094 379.300781 157.898438 386.886719 162.605469 C 389.902344 164.476562 390.699219 166.609375 389.25 168.941406 C 388.480469 170.183594 387.132812 171.40625 385.578125 172.824219 C 383.515625 174.703125 381.175781 176.832031 379.453125 179.609375 C 377.730469 182.382812 376.863281 185.425781 376.09375 188.105469 C 375.515625 190.128906 375.015625 191.878906 374.246094 193.125 C 372.796875 195.457031 370.535156 195.6875 367.515625 193.816406 " fill-opacity="1" fill-rule="nonzero"/></g></g></g><g clip-path="url(#dffa760967)"><g clip-path="url(#4decbea73a)"><g clip-path="url(#4a294ef6f2)"><path fill="#ffffff" d="M 375.285156 177.320312 C 382.601562 165.527344 397.273438 161.394531 411.800781 170.410156 C 425.203125 178.722656 432.019531 192.421875 427.128906 203.953125 C 426.71875 204.921875 422.683594 211.382812 421.890625 212.269531 C 413.644531 221.484375 398.554688 221.332031 385.304688 213.109375 C 370.777344 204.09375 367.964844 189.113281 375.285156 177.320312 " fill-opacity="1" fill-rule="nonzero"/></g></g></g><g clip-path="url(#e80b6e0491)"><g clip-path="url(#f6163c0b31)"><g clip-path="url(#612f7384d9)"><g clip-path="url(#4c7f7d0433)"><g clip-path="url(#c47a5fbc2a)"><path fill="#050606" d="M 386.769531 212.742188 C 399.855469 220.859375 414.296875 220.601562 421.894531 212.109375 C 423.105469 210.757812 426.527344 205.074219 426.933594 204.109375 C 431.460938 193.441406 425.34375 180.234375 412.058594 171.988281 C 398.933594 163.84375 384.566406 166.535156 377.121094 178.53125 C 369.675781 190.527344 373.644531 204.59375 386.769531 212.742188 Z M 424.265625 213.4375 C 423.847656 213.542969 423.480469 213.785156 423.183594 214.101562 C 418.996094 218.515625 413.191406 220.890625 406.351562 220.980469 C 399.625 221.070312 392.242188 218.839844 385.558594 214.691406 C 378.363281 210.226562 373.625 204.160156 371.851562 197.144531 C 370.175781 190.511719 371.355469 183.472656 375.171875 177.320312 C 378.988281 171.171875 384.773438 166.988281 391.460938 165.546875 C 398.53125 164.019531 406.074219 165.574219 413.269531 170.039062 C 427.058594 178.597656 433.582031 192.316406 429.511719 203.820312 C 429.304688 204.40625 429.339844 205.050781 429.613281 205.609375 C 431.269531 209.019531 436.269531 212.597656 434.875 213.734375 C 432.921875 215.324219 427.804688 212.546875 424.265625 213.4375 " fill-opacity="1" fill-rule="nonzero"/></g></g></g></g></g><g clip-path="url(#70b732f43b)"><g clip-path="url(#0f666b04a4)"><g clip-path="url(#dee25d0693)"><path fill="#050606" d="M 404.964844 218.964844 C 408.101562 194.796875 425.234375 184.765625 425.40625 184.664062 L 419.546875 175.605469 C 418.671875 176.105469 398.058594 188.167969 394.308594 217.039062 L 404.964844 218.964844 " fill-opacity="1" fill-rule="nonzero"/></g></g></g><g clip-path="url(#3dae6bc210)"><g clip-path="url(#e3d4eaeb76)"><g clip-path="url(#b46ec57c6f)"><path fill="#050606" d="M 384.792969 213.695312 C 387.8125 189.449219 410.574219 169.855469 410.75 169.757812 L 399.996094 166.386719 C 399.113281 166.878906 379.246094 174.554688 375.644531 203.515625 L 384.792969 213.695312 " fill-opacity="1" fill-rule="nonzero"/></g></g></g><g clip-path="url(#f4f56c7c30)"><g clip-path="url(#e24aadb23b)"><g clip-path="url(#d7a7c67f6e)"><path fill="#050606" d="M 360.558594 178.949219 L 361.53125 176.886719 C 361.367188 176.824219 357.457031 175.433594 352.933594 174.699219 C 346.496094 173.660156 342.324219 174.472656 340.179688 177.1875 C 338.125 179.792969 338.273438 183.644531 340.640625 188.964844 L 342.363281 187.613281 C 340.417969 183.238281 340.085938 180.046875 341.410156 178.363281 C 344.226562 174.796875 354.648438 176.832031 360.558594 178.949219 " fill-opacity="1" fill-rule="nonzero"/></g></g></g><g clip-path="url(#3cd910f1be)"><g clip-path="url(#6524354cf3)"><g clip-path="url(#5abc36030b)"><path fill="#050606" d="M 338.746094 187.820312 C 340.367188 189.855469 342.863281 190.222656 344.324219 188.640625 C 345.78125 187.058594 345.648438 184.128906 344.027344 182.09375 C 342.40625 180.0625 339.910156 179.695312 338.453125 181.277344 C 336.992188 182.855469 337.125 185.789062 338.746094 187.820312 " fill-opacity="1" fill-rule="nonzero"/></g></g></g><g clip-path="url(#7aee4830e7)"><g clip-path="url(#fe64007904)"><g clip-path="url(#7faef50eca)"><path fill="#050606" d="M 370.207031 163.402344 L 368.789062 165.191406 C 368.664062 165.070312 365.675781 162.1875 363.015625 158.457031 C 359.222656 153.148438 358.101562 149.050781 359.582031 145.925781 C 361 142.925781 364.519531 141.351562 370.335938 141.109375 L 369.890625 143.25 C 365.105469 143.449219 362.097656 144.570312 361.179688 146.503906 C 359.234375 150.613281 365.683594 159.050781 370.207031 163.402344 " fill-opacity="1" fill-rule="nonzero"/></g></g></g><g clip-path="url(#397f567f2d)"><g clip-path="url(#aff081704a)"><g clip-path="url(#74fdcd250b)"><path fill="#050606" d="M 368.472656 139.917969 C 371.011719 140.46875 372.449219 142.542969 371.679688 144.550781 C 370.910156 146.5625 368.226562 147.746094 365.683594 147.195312 C 363.140625 146.644531 361.707031 144.570312 362.476562 142.5625 C 363.246094 140.550781 365.929688 139.371094 368.472656 139.917969 " fill-opacity="1" fill-rule="nonzero"/></g></g></g><g clip-path="url(#f49b24d2b3)"><g clip-path="url(#aea3c643f9)"><g clip-path="url(#31b8944c14)"><path fill="#ffffff" d="M 397.347656 181.953125 C 397.347656 181.953125 396.167969 156.796875 410.605469 151.117188 C 425.039062 145.441406 433.773438 154.382812 430.617188 165.34375 C 427.464844 176.308594 397.347656 181.953125 397.347656 181.953125 " fill-opacity="1" fill-rule="nonzero"/></g></g></g><g clip-path="url(#2f0c11fe56)"><g clip-path="url(#7bb613c329)"><g clip-path="url(#1015d70221)"><path fill="#050606" d="M 398.382812 180.679688 C 403.695312 179.546875 423.839844 174.789062 428.78125 166.824219 C 429.152344 166.226562 429.429688 165.621094 429.601562 165.019531 C 430.980469 160.222656 429.960938 155.742188 426.871094 153.023438 C 423.285156 149.875 417.515625 149.527344 411.046875 152.070312 C 408.007812 153.265625 405.457031 155.5 403.464844 158.714844 C 398.820312 166.199219 398.382812 177.003906 398.382812 180.679688 Z M 397.601562 182.960938 L 396.351562 183.191406 L 396.292969 181.941406 C 396.265625 181.34375 395.675781 167.199219 401.640625 157.585938 C 403.859375 154.011719 406.726562 151.515625 410.164062 150.160156 C 417.410156 147.3125 424 147.8125 428.234375 151.535156 C 431.964844 154.816406 433.238281 160.101562 431.632812 165.671875 C 431.414062 166.441406 431.066406 167.207031 430.601562 167.953125 C 430.601562 167.957031 430.601562 167.953125 430.601562 167.953125 C 424.480469 177.824219 398.695312 182.753906 397.601562 182.960938 " fill-opacity="1" fill-rule="nonzero"/></g></g></g><g clip-path="url(#8b3c511baf)"><g clip-path="url(#5b94c95362)"><g clip-path="url(#8af940cb8a)"><path fill="#ffffff" d="M 397.132812 181.488281 C 397.132812 181.488281 376.730469 154.710938 387.070312 138.042969 C 397.40625 121.371094 413.105469 124.882812 418.269531 139.203125 C 423.433594 153.523438 397.132812 181.488281 397.132812 181.488281 " fill-opacity="1" fill-rule="nonzero"/></g></g></g><g clip-path="url(#33517eaa61)"><g clip-path="url(#0e254720e1)"><g clip-path="url(#22998d967b)"><g clip-path="url(#a2a008251a)"><g clip-path="url(#03825b43e3)"><path fill="#050606" d="M 389.175781 165.621094 C 392.015625 172.179688 395.628906 177.617188 397.191406 179.835938 C 399.457031 177.316406 405.785156 170.039062 410.828125 161.910156 C 416.839844 152.21875 419.070312 144.46875 417.277344 139.496094 C 414.976562 133.117188 410.421875 128.851562 405.085938 128.085938 C 398.914062 127.199219 392.679688 131.03125 387.980469 138.605469 C 382.867188 146.851562 385.808594 157.847656 389.175781 165.621094 Z M 397.925781 182.203125 L 397.085938 183.101562 L 396.296875 182.066406 C 396.085938 181.789062 391.074219 175.167969 387.257812 166.371094 C 382.136719 154.566406 381.753906 144.574219 386.164062 137.46875 C 391.292969 129.207031 398.261719 125.046875 405.28125 126.054688 C 411.453125 126.945312 416.679688 131.75 419.261719 138.914062 C 421.300781 144.566406 419.074219 152.683594 412.648438 163.039062 C 412.648438 163.042969 412.648438 163.039062 412.648438 163.042969 C 406.320312 173.242188 398.011719 182.113281 397.925781 182.203125 " fill-opacity="1" fill-rule="nonzero"/></g></g></g></g></g><g clip-path="url(#9289991eba)"><g clip-path="url(#760fb017a8)"><g clip-path="url(#a360cb9352)"><path fill="#ffffff" d="M 389.554688 194.542969 C 389.554688 194.542969 366.507812 204.703125 367.863281 220.15625 C 369.21875 235.609375 381.113281 239.4375 389.519531 231.726562 C 397.929688 224.015625 389.554688 194.542969 389.554688 194.542969 " fill-opacity="1" fill-rule="nonzero"/></g></g></g><g clip-path="url(#cb494f0c64)"><g clip-path="url(#20ead6c6d4)"><g clip-path="url(#cbe740afab)"><path fill="#050606" d="M 371.480469 210.375 C 369.492188 213.59375 368.628906 216.875 368.914062 220.125 C 369.519531 227.050781 372.402344 232.058594 376.824219 233.863281 C 380.632812 235.417969 385.097656 234.335938 388.777344 230.960938 C 389.238281 230.539062 389.65625 230.023438 390.027344 229.421875 C 394.953125 221.449219 390.230469 201.292969 388.875 196.035156 C 385.585938 197.675781 376.109375 202.878906 371.480469 210.375 Z M 391.851562 230.550781 C 391.390625 231.296875 390.855469 231.949219 390.265625 232.488281 C 385.996094 236.410156 380.699219 237.628906 376.101562 235.75 C 370.878906 233.617188 367.492188 227.945312 366.8125 220.1875 C 366.492188 216.507812 367.445312 212.828125 369.660156 209.25 C 375.601562 199.625 388.527344 193.84375 389.074219 193.605469 L 390.222656 193.097656 L 390.570312 194.320312 C 390.871094 195.390625 397.953125 220.667969 391.851562 230.550781 " fill-opacity="1" fill-rule="nonzero"/></g></g></g><g clip-path="url(#4f2940453e)"><g clip-path="url(#8a598334e4)"><g clip-path="url(#23683a17ff)"><path fill="#ffffff" d="M 389.042969 194.554688 C 389.042969 194.554688 355.976562 188.234375 345.667969 204.917969 C 335.355469 221.605469 345.496094 234.089844 360.617188 232.328125 C 375.738281 230.566406 389.042969 194.554688 389.042969 194.554688 " fill-opacity="1" fill-rule="nonzero"/></g></g></g><g clip-path="url(#3cadac2535)"><g clip-path="url(#880d12865b)"><g clip-path="url(#eb6c1ed6f6)"><path fill="#050606" d="M 346.578125 205.480469 C 341.890625 213.066406 341.242188 220.355469 344.789062 225.484375 C 347.851562 229.917969 353.703125 232.09375 360.433594 231.308594 C 365.6875 230.695312 371.632812 225.246094 377.625 215.542969 C 382.648438 207.40625 386.34375 198.496094 387.589844 195.347656 C 384.910156 194.9375 378.429688 194.125 371.292969 194.507812 C 362.832031 194.957031 351.679688 197.230469 346.578125 205.480469 Z M 379.449219 216.667969 C 379.449219 216.667969 379.449219 216.667969 379.445312 216.667969 C 373.042969 227.039062 366.769531 232.652344 360.800781 233.347656 C 353.234375 234.230469 346.605469 231.691406 343.058594 226.566406 C 339.023438 220.730469 339.640625 212.636719 344.75 204.363281 C 349.144531 197.25 358.257812 193.132812 371.105469 192.457031 C 380.683594 191.949219 388.847656 193.484375 389.191406 193.546875 L 390.464844 193.792969 L 390.035156 194.949219 C 389.996094 195.0625 385.753906 206.457031 379.449219 216.667969 " fill-opacity="1" fill-rule="nonzero"/></g></g></g><g fill="#ffffff" fill-opacity="1"><g transform="translate(510.956048, 256.86774)"><g><path d="M 98.984375 -57.1875 L 45.796875 -57.1875 L 45.796875 0 L 15.390625 0 L 15.390625 -139.5625 L 45.796875 -139.5625 L 45.796875 -83.984375 L 98.984375 -83.984375 L 98.984375 -139.5625 L 129.375 -139.5625 L 129.375 0 L 98.984375 0 Z M 98.984375 -57.1875 "/></g></g></g><g fill="#ffffff" fill-opacity="1"><g transform="translate(655.698966, 256.86774)"><g><path d="M 28.59375 -116.171875 C 22.59375 -116.171875 18.222656 -117.535156 15.484375 -120.265625 C 12.753906 -123.003906 11.390625 -126.503906 11.390625 -130.765625 L 11.390625 -135.171875 C 11.390625 -139.429688 12.753906 -142.925781 15.484375 -145.65625 C 18.222656 -148.394531 22.59375 -149.765625 28.59375 -149.765625 C 34.59375 -149.765625 38.957031 -148.394531 41.6875 -145.65625 C 44.425781 -142.925781 45.796875 -139.429688 45.796875 -135.171875 L 45.796875 -130.765625 C 45.796875 -126.503906 44.425781 -123.003906 41.6875 -120.265625 C 38.957031 -117.535156 34.59375 -116.171875 28.59375 -116.171875 Z M 13.796875 -104.96875 L 43.390625 -104.96875 L 43.390625 0 L 13.796875 0 Z M 13.796875 -104.96875 "/></g></g></g><g fill="#ffffff" fill-opacity="1"><g transform="translate(712.876392, 256.86774)"><g><path d="M 36.1875 0 L 1.796875 -104.96875 L 31 -104.96875 L 43.984375 -62.578125 L 53.78125 -24.59375 L 55.390625 -24.59375 L 65.1875 -62.578125 L 77.78125 -104.96875 L 105.78125 -104.96875 L 71.390625 0 Z M 36.1875 0 "/></g></g></g><g fill="#ffffff" fill-opacity="1"><g transform="translate(820.43391, 256.86774)"><g><path d="M 57.59375 2.40625 C 49.59375 2.40625 42.457031 1.101562 36.1875 -1.5 C 29.925781 -4.101562 24.628906 -7.769531 20.296875 -12.5 C 15.960938 -17.226562 12.695312 -22.988281 10.5 -29.78125 C 8.300781 -36.582031 7.203125 -44.1875 7.203125 -52.59375 C 7.203125 -60.851562 8.265625 -68.347656 10.390625 -75.078125 C 12.523438 -81.816406 15.691406 -87.582031 19.890625 -92.375 C 24.085938 -97.175781 29.253906 -100.875 35.390625 -103.46875 C 41.523438 -106.070312 48.523438 -107.375 56.390625 -107.375 C 65.054688 -107.375 72.488281 -105.90625 78.6875 -102.96875 C 84.882812 -100.039062 89.945312 -96.109375 93.875 -91.171875 C 97.8125 -86.242188 100.675781 -80.546875 102.46875 -74.078125 C 104.269531 -67.617188 105.171875 -60.851562 105.171875 -53.78125 L 105.171875 -44.984375 L 37.796875 -44.984375 L 37.796875 -43.390625 C 37.796875 -36.460938 39.660156 -30.960938 43.390625 -26.890625 C 47.117188 -22.828125 52.984375 -20.796875 60.984375 -20.796875 C 67.117188 -20.796875 72.117188 -22.023438 75.984375 -24.484375 C 79.847656 -26.953125 83.445312 -29.921875 86.78125 -33.390625 L 101.578125 -15 C 96.910156 -9.53125 90.8125 -5.257812 83.28125 -2.1875 C 75.75 0.875 67.1875 2.40625 57.59375 2.40625 Z M 56.984375 -85.578125 C 50.984375 -85.578125 46.285156 -83.609375 42.890625 -79.671875 C 39.492188 -75.742188 37.796875 -70.515625 37.796875 -63.984375 L 37.796875 -62.390625 L 74.578125 -62.390625 L 74.578125 -64.1875 C 74.578125 -70.582031 73.144531 -75.742188 70.28125 -79.671875 C 67.414062 -83.609375 62.984375 -85.578125 56.984375 -85.578125 Z M 56.984375 -85.578125 "/></g></g></g><g fill="#ffffff" fill-opacity="1"><g transform="translate(932.789593, 256.86774)"><g><path d="M 73.578125 -112.578125 L 73.578125 0 L 43.1875 0 L 43.1875 -112.578125 L 5.40625 -112.578125 L 5.40625 -139.5625 L 111.375 -139.5625 L 111.375 -112.578125 Z M 73.578125 -112.578125 "/></g></g></g><g fill="#ffffff" fill-opacity="1"><g transform="translate(1049.543583, 256.86774)"><g><path d="M 91.375 0 C 86.039062 0 81.609375 -1.664062 78.078125 -5 C 74.546875 -8.332031 72.316406 -12.796875 71.390625 -18.390625 L 70.1875 -18.390625 C 68.582031 -11.597656 65.046875 -6.429688 59.578125 -2.890625 C 54.117188 0.640625 47.390625 2.40625 39.390625 2.40625 C 28.859375 2.40625 20.789062 -0.390625 15.1875 -5.984375 C 9.59375 -11.585938 6.796875 -18.988281 6.796875 -28.1875 C 6.796875 -39.257812 10.828125 -47.492188 18.890625 -52.890625 C 26.960938 -58.285156 37.925781 -60.984375 51.78125 -60.984375 L 68.390625 -60.984375 L 68.390625 -67.578125 C 68.390625 -72.648438 67.054688 -76.6875 64.390625 -79.6875 C 61.722656 -82.6875 57.253906 -84.1875 50.984375 -84.1875 C 45.117188 -84.1875 40.453125 -82.914062 36.984375 -80.375 C 33.523438 -77.84375 30.660156 -74.976562 28.390625 -71.78125 L 10.796875 -87.375 C 15.066406 -93.644531 20.429688 -98.546875 26.890625 -102.078125 C 33.359375 -105.609375 42.125 -107.375 53.1875 -107.375 C 68.113281 -107.375 79.3125 -104.109375 86.78125 -97.578125 C 94.25 -91.046875 97.984375 -81.515625 97.984375 -68.984375 L 97.984375 -23 L 107.78125 -23 L 107.78125 0 Z M 50.390625 -18.203125 C 55.316406 -18.203125 59.546875 -19.265625 63.078125 -21.390625 C 66.617188 -23.523438 68.390625 -26.992188 68.390625 -31.796875 L 68.390625 -44.1875 L 53.984375 -44.1875 C 42.390625 -44.1875 36.59375 -40.253906 36.59375 -32.390625 L 36.59375 -29.390625 C 36.59375 -25.523438 37.789062 -22.691406 40.1875 -20.890625 C 42.59375 -19.097656 45.992188 -18.203125 50.390625 -18.203125 Z M 50.390625 -18.203125 "/></g></g></g><g fill="#ffffff" fill-opacity="1"><g transform="translate(1163.298649, 256.86774)"><g><path d="M 43.1875 0 C 33.0625 0 25.628906 -2.460938 20.890625 -7.390625 C 16.160156 -12.328125 13.796875 -19.460938 13.796875 -28.796875 L 13.796875 -147.96875 L 43.390625 -147.96875 L 43.390625 -23 L 56.59375 -23 L 56.59375 0 Z M 43.1875 0 "/></g></g></g><g fill="#ffffff" fill-opacity="1"><g transform="translate(1223.87474, 256.86774)"><g><path d="M 13.796875 -147.96875 L 43.390625 -147.96875 L 43.390625 -60.578125 L 44.59375 -60.578125 L 57.59375 -79.984375 L 78.578125 -104.96875 L 111.375 -104.96875 L 76.375 -64.78125 L 115.375 0 L 80.1875 0 L 56.59375 -44.390625 L 43.390625 -29.59375 L 43.390625 0 L 13.796875 0 Z M 13.796875 -147.96875 "/></g></g></g></svg>